<svg width="120" height="37" viewBox="0 0 120 37" fill="none" xmlns="http://www.w3.org/2000/svg">
<path d="M39.7957 18.733L38.6475 18.6597H37.3526C37.1898 18.6597 36.8477 18.676 36.3265 18.7086V22.8863C36.3265 23.9938 36.3754 24.8896 36.4731 25.5737H39.9912C40.659 25.5737 41.3675 25.5086 42.1167 25.3783C42.3447 25.0688 42.5157 24.7593 42.6297 24.4499C42.646 24.3196 42.703 24.0427 42.8008 23.6192C42.9148 23.1795 42.9799 22.9107 42.9962 22.813L44.3399 22.9352L43.9734 26.7953L43.7291 27.064L42.4099 27.0152C41.4978 26.9826 40.9359 26.9663 40.7241 26.9663H34.8851C34.3313 26.9663 33.745 27.007 33.1261 27.0884L32.1244 27.1862L31.9534 25.7936L33.8346 25.5737C33.8508 25.4271 33.8916 25.1502 33.9567 24.7431C34.0382 24.3196 34.0789 23.945 34.0789 23.6192V13.0895C34.0789 12.8451 34.0382 12.5194 33.9567 12.1122C33.8916 11.6887 33.8508 11.363 33.8346 11.135L31.9534 10.8418L32.0755 9.62024L32.7596 9.69353C33.2808 9.72611 33.745 9.7424 34.1522 9.7424H40.4065C40.83 9.7424 41.8317 9.66096 43.4115 9.49809L43.6558 9.76683L43.8269 13.2605L42.4099 13.3826C42.2796 12.6823 42.1818 12.2262 42.1167 12.0145C42.0515 11.8027 41.8968 11.5422 41.6525 11.2327C41.0336 11.1513 40.3739 11.1105 39.6736 11.1105H36.4731C36.3754 11.762 36.3265 12.666 36.3265 13.8224V17.3405C36.8803 17.373 37.2223 17.3893 37.3526 17.3893H39.1361C39.527 17.3893 40.0156 17.316 40.602 17.1694L40.8218 15.557L41.9457 15.6791C41.9294 15.8746 41.9212 16.1433 41.9212 16.4854V17.6336C41.9212 18.4806 41.9294 19.0751 41.9457 19.4171L41.9945 20.2966L40.8218 20.4432L40.602 18.8063L39.7957 18.733Z" fill="black"/>
<path d="M60.5505 19.7103L60.5261 23.7903V27.1373H59.0602L49.4344 13.3826V22.8863C49.4344 23.7495 49.4588 24.3522 49.5077 24.6942L49.6054 25.5737L51.511 25.7203L51.3644 27.064L50.4849 27.0152C49.7357 26.9826 49.0597 26.9663 48.4571 26.9663C47.8708 26.9663 47.2926 27.007 46.7225 27.0884L45.843 27.1862L45.672 25.7936L47.5532 25.5737C47.5695 25.4271 47.6102 25.1502 47.6753 24.7431C47.7568 24.3196 47.7975 23.945 47.7975 23.6192V13.0895C47.7975 12.8289 47.7568 12.4787 47.6753 12.0389C47.6102 11.5992 47.5695 11.2897 47.5532 11.1105L45.6964 10.9151L45.8186 9.62024L46.8447 9.69353C47.5939 9.72611 48.1477 9.7424 48.506 9.7424C48.8643 9.7424 49.2878 9.72611 49.7764 9.69353L50.3872 9.64467L50.5093 9.79126C50.7536 10.3776 51.112 11.1838 51.5843 12.2099C52.0729 13.236 52.3824 13.8387 52.5127 14.0178L58.9136 22.984V13.3338C58.9136 13.0243 58.8729 12.6415 58.7915 12.1855C58.7263 11.7295 58.6856 11.3793 58.6693 11.135L56.7881 10.9395L56.9103 9.62024L57.6921 9.69353C58.311 9.72611 58.9706 9.7424 59.671 9.7424C60.3713 9.7424 61.0147 9.70982 61.601 9.64467L62.7249 9.54695L62.8714 10.9884L60.9658 11.135L60.7459 12.1366C60.6156 12.9184 60.5505 13.5618 60.5505 14.0667V19.7103Z" fill="black"/>
<path d="M79.2078 19.7103L79.1834 23.7903V27.1373H77.7175L68.0917 13.3826V22.8863C68.0917 23.7495 68.1161 24.3522 68.165 24.6942L68.2627 25.5737L70.1683 25.7203L70.0217 27.064L69.1422 27.0152C68.393 26.9826 67.7171 26.9663 67.1144 26.9663C66.5281 26.9663 65.9499 27.007 65.3798 27.0884L64.5003 27.1862L64.3293 25.7936L66.2105 25.5737C66.2268 25.4271 66.2675 25.1502 66.3326 24.7431C66.4141 24.3196 66.4548 23.945 66.4548 23.6192V13.0895C66.4548 12.8289 66.4141 12.4787 66.3326 12.0389C66.2675 11.5992 66.2268 11.2897 66.2105 11.1105L64.3537 10.9151L64.4759 9.62024L65.502 9.69353C66.2512 9.72611 66.805 9.7424 67.1633 9.7424C67.5216 9.7424 67.9451 9.72611 68.4337 9.69353L69.0445 9.64467L69.1666 9.79126C69.4109 10.3776 69.7693 11.1838 70.2416 12.2099C70.7302 13.236 71.0397 13.8387 71.17 14.0178L77.5709 22.984V13.3338C77.5709 13.0243 77.5302 12.6415 77.4488 12.1855C77.3836 11.7295 77.3429 11.3793 77.3266 11.135L75.4454 10.9395L75.5676 9.62024L76.3494 9.69353C76.9683 9.72611 77.6279 9.7424 78.3283 9.7424C79.0286 9.7424 79.672 9.70982 80.2583 9.64467L81.3822 9.54695L81.5287 10.9884L79.6231 11.135L79.4032 12.1366C79.2729 12.9184 79.2078 13.5618 79.2078 14.0667V19.7103Z" fill="black"/>
<path d="M95.9839 20.2477V13.2116C95.9839 13.0162 95.9432 12.6823 95.8618 12.2099C95.7803 11.7213 95.7315 11.363 95.7152 11.135L93.8584 10.9395L93.9806 9.62024L94.5669 9.69353C95.0555 9.72611 95.6907 9.7424 96.4725 9.7424C97.2543 9.7424 97.9465 9.70982 98.5492 9.64467L99.673 9.54695L99.8196 10.9884L97.914 11.135L97.8162 12.0878C97.7674 12.4624 97.7429 13.0813 97.7429 13.9445V20.2477C97.7429 22.3977 97.1973 24.116 96.1061 25.4027C95.0148 26.6894 93.4512 27.3328 91.4153 27.3328C89.3957 27.3328 87.8402 26.6731 86.749 25.3538C85.6577 24.0346 85.1121 22.2918 85.1121 20.1256V13.2116C85.1121 12.9184 85.0714 12.5601 84.9899 12.1366C84.9248 11.6969 84.8841 11.363 84.8678 11.135L82.9866 10.8418L83.1087 9.62024L83.8905 9.69353C84.5095 9.72611 85.1854 9.7424 85.9183 9.7424C86.6675 9.7424 87.376 9.70982 88.0438 9.64467L89.3631 9.54695L89.5097 10.9884L87.6041 11.135L87.5063 12.0878C87.4575 12.4624 87.433 13.0813 87.433 13.9445V20.2477C87.433 21.8765 87.7995 23.2039 88.5324 24.23C89.2654 25.2561 90.3159 25.7692 91.684 25.7692C93.0522 25.7692 94.1109 25.2561 94.8601 24.23C95.6093 23.1876 95.9839 21.8602 95.9839 20.2477Z" fill="black"/>
<path d="M109.08 20.5409C108.542 20.1337 107.931 19.7591 107.247 19.4171L106.148 18.8552C106.099 18.8389 106.05 18.8226 106.001 18.8063C104.666 18.1548 103.631 17.4708 102.898 16.7541C102.166 16.0212 101.799 15.0114 101.799 13.7247C101.799 12.4217 102.288 11.3711 103.265 10.5731C104.258 9.77497 105.447 9.37593 106.832 9.37593C108.216 9.37593 109.951 9.63653 112.036 10.1577L111.694 13.7491L110.252 13.6025V12.6253C110.252 12.4624 110.138 12.0063 109.91 11.2571C109.047 10.8988 108.151 10.7196 107.223 10.7196C106.294 10.7196 105.561 10.9558 105.024 11.4281C104.503 11.9005 104.242 12.5683 104.242 13.4315C104.242 14.2784 104.649 15.0114 105.464 15.6303C106.034 16.0375 106.636 16.4039 107.272 16.7297C107.923 17.0391 108.265 17.202 108.298 17.2183C109.063 17.6092 109.666 17.9431 110.106 18.22C110.545 18.4969 111.001 18.8389 111.474 19.2461C112.402 20.0767 112.866 21.225 112.866 22.6909C112.866 24.1404 112.321 25.2805 111.229 26.1112C110.138 26.9256 108.827 27.3328 107.296 27.3328C105.781 27.3328 104.389 27.121 103.118 26.6975C102.581 26.5184 102.092 26.2985 101.652 26.0379L102.019 22.2755L103.631 22.4221V23.5948C103.631 23.8391 103.721 24.3766 103.9 25.2073C104.926 25.647 105.96 25.8669 107.003 25.8669C108.045 25.8669 108.851 25.6063 109.422 25.0851C110.008 24.5476 110.301 23.8147 110.301 22.8863C110.301 21.9416 109.894 21.1598 109.08 20.5409Z" fill="black"/>
<path d="M19.7684 6.3526H16.2056L15.3148 8.13403L16.2056 9.91546L15.9315 11.6969L15.6574 13.4783L15.3834 15.2598L15.1093 17.0412L14.8352 18.8226L14.4241 21.4948L15.3148 23.3875L16.3104 25.503L17.987 29.0658L20.2924 24.1669L21.5499 21.4948L21.2758 19.7133L21.0017 17.9319L20.4536 14.369L20.1795 12.5876L19.9255 10.9363L19.7684 9.91546L20.6591 8.13403L19.7684 6.3526Z" fill="black" stroke="black" stroke-opacity="0.96" stroke-width="1.01796"/>
<path d="M5.51697 6.3526H8.18911L17.987 29.5112L27.7849 6.3526H30.457" stroke="black" stroke-width="2.03592" stroke-linecap="square"/>
</svg>
