<svg id="Capa_1" data-name="Capa 1" xmlns="http://www.w3.org/2000/svg" xmlns:xlink="http://www.w3.org/1999/xlink" viewBox="0 0 408.3 385.3"><defs><style>.cls-1,.cls-10,.cls-4,.cls-6{fill:#666;}.cls-1{opacity:0.16;}.cls-1,.cls-6{isolation:isolate;}.cls-2,.cls-3,.cls-5,.cls-7,.cls-9{stroke:#aaa;}.cls-10,.cls-12,.cls-2,.cls-3,.cls-5,.cls-7,.cls-9{stroke-miterlimit:10;}.cls-10,.cls-2,.cls-3,.cls-5,.cls-7,.cls-9{stroke-width:3px;}.cls-2{fill:url(#Degradado_sin_nombre);}.cls-3{fill:url(#Degradado_sin_nombre_2);}.cls-5{fill:url(#Degradado_sin_nombre_3);}.cls-6{opacity:0.05;}.cls-7{fill:#fff;}.cls-8{fill:#999;}.cls-9{fill:url(#Degradado_sin_nombre_4);}.cls-10,.cls-12{stroke:#666;}.cls-10{stroke-linecap:round;}.cls-11{fill:#4d4d4d;}.cls-12{fill:none;stroke-width:6px;}</style><linearGradient id="Degradado_sin_nombre" x1="200.1" y1="491.74" x2="227.44" y2="511.71" gradientTransform="translate(0 -224)" gradientUnits="userSpaceOnUse"><stop offset="0" stop-color="#fff"/><stop offset="1" stop-color="#484848"/></linearGradient><linearGradient id="Degradado_sin_nombre_2" x1="303.81" y1="489.68" x2="303.81" y2="621.79" xlink:href="#Degradado_sin_nombre"/><linearGradient id="Degradado_sin_nombre_3" x1="297.57" y1="550.34" x2="352.61" y2="680.95" xlink:href="#Degradado_sin_nombre"/><linearGradient id="Degradado_sin_nombre_4" x1="299.42" y1="524.56" x2="331.76" y2="554.72" xlink:href="#Degradado_sin_nombre"/></defs><title>no-picture</title><path class="cls-1" d="M340.1,322.4c-2.9-6.2-4.1-15.4-4.3-26,15.1,21.7,46.9,1.4,46.9,1.4-1.4.1-2.6.1-3.9.2a18.65,18.65,0,0,0,2-1,31,31,0,0,1-16.7-6.6c4,.1,12.6,1.5,16.2-1.9-20-8.3-14.8-36.4-10.2-50.3a88.57,88.57,0,0,0,4.7-31.9c-1.3-20.5-11.8-33-28.9-38.1-7.6-1.7-18.9-.7-26.6,4.5A10.48,10.48,0,0,1,321,168c-6.4,2.1-12.4,4.7-14.9,10.8a50.81,50.81,0,0,0-18.4,1.7,1.27,1.27,0,0,1-.1.6,58.37,58.37,0,0,0-15.6-.2c-17.2,2.6-21.4,7.1-30.4,16.3-1,1.2-1.9,2.4-2.8,3.5a55.68,55.68,0,0,0-10,.1c-6,1.2-7.2,6.4-8,11.2a54.33,54.33,0,0,0,.5,20.1,3.81,3.81,0,0,0,.8,1.7c.3.4.7.8,1,1.2-1.2,5.5-2.4,12-3.8,20.1-.4,3.7-.7,7.3-.9,10.7-8.5-7.3-21.7-20.9-31.1-11.4-11.9,15,31.8,41,31.8,41v-.1c2.2,16.8,7.6,28.9,14.9,38.3,14.2,18.2,35.3,31.8,68.1,31.1,47.8-1,57.8-18.3,57.8-32.8,0-2.6-14.8,1-19.8-9.5ZM227.6,210.2c.6-2.2,3.1-3.1,6.6-3.3a58,58,0,0,0-8,16.4,38.8,38.8,0,0,1,1.4-13.1Z"/><path class="cls-2" d="M207.5,258.9c-8.5-7.3-21.8-21-31.2-11.5-11.9,15,31.8,41,31.8,41"/><path class="cls-3" d="M308.3,165.7A10.48,10.48,0,0,1,310,161c-6.9,2.3-13.4,5.1-15.4,12.4-36-1.4-55.1,23.1-56.7,55.9-1,19.8,6.5,29.8,18.4,36.9a61.67,61.67,0,0,0,14.2,15.9c5.8,4.6,15.1,11.4,24.8,10.1,9.9-1.3,17.5-9.2,24.2-14,7.3,15.1,17,28.5,50.3,11.8a31,31,0,0,1-16.7-6.6c4,.1,12.6,1.5,16.2-1.9-20-8.3-14.8-36.4-10.2-50.3a88.57,88.57,0,0,0,4.7-31.9c-1.3-20.5-11.8-33-28.9-38.1-7.6-1.7-18.9-.7-26.6,4.5Z"/><path class="cls-4" d="M276.7,173.5s42.3-13.4,47.9,30.7C324.5,204.1,270.4,234.1,276.7,173.5Z"/><path class="cls-5" d="M348.9,324.9c0,14.5-10,31.8-57.8,32.8-32.8.7-53.9-12.9-68.1-31.1-12.2-15.5-19-38.8-14.7-78.5,6.1-33.5,7.3-39.7,22.3-57.9,9-9.2,13.2-13.7,30.4-16.3,16.6-1.9,35.2,3,50.9,17.3,17.7,16.1,19.6,35.5,18.1,48.3-1.2,10.8-4.8,28.5-5.2,43.1-.3,13.5.8,25.3,4.3,32.8,5,10.5,19.8,6.9,19.8,9.5Z"/><path class="cls-1" d="M307.3,217.6c-16.9-9.8-29.8-8.9-36.1-7.4a10.19,10.19,0,0,0-3.5,1.6c-4-3.6-9.6-3.7-12.9-3.3a10,10,0,0,0-3-2.8c-16.9-9.8-29.8-8.9-36.1-7.4l8.5-.3c-3.6.8-7.8,10.4-8.9,13.8-2.9,8.6-4.9,12.7-4.2,16.5.5,2.8-1.2,3.1.9,4.9a29,29,0,0,0,19.1,7.3,29.73,29.73,0,0,0,6.3-.7,26.39,26.39,0,0,0,5.8-3.1c8.5-6.7,11-14.4,12.7-19.6a12.82,12.82,0,0,0,.5-2.7c2.3-.1,5.6.2,7.6,2.4-.1.2-.1.4-.2.6a51.09,51.09,0,0,0-.5,20.5,12.81,12.81,0,0,0,4.1,7.2,30,30,0,0,0,19.5,7.5,17.92,17.92,0,0,0,11.4-3.4c8.8-6.9,11.6-15.6,13.1-20.2a9.46,9.46,0,0,0-4.1-11.4Zm-56.8-2.5c-1.6,5-3.6,11.2-10.7,16.7a30.65,30.65,0,0,1-3.6,2c-3.3.8-11.7,1.8-20.1-5.4-1.1-.9-2.1-1.7-1.8-3.1.5-3.3,1.7-4.2,3.5-12,.3-1.4,4.2-9.9,5.2-10.1,5.4-1.2,10.9-1.2,25.9,7.6a3.84,3.84,0,0,1,1.6,4.3Zm55.4,12c-1.3,4-3.8,11.5-11.1,17.3a20.09,20.09,0,0,1-3.3,1.6c-2.4.6-11.1,2-20-5.6a6.27,6.27,0,0,1-2.1-3.7,44.38,44.38,0,0,1,.5-18,3.55,3.55,0,0,1,2.7-2.7,30.4,30.4,0,0,1,6.9-.8c6.1,0,14.5,1.6,24.7,7.5a3.69,3.69,0,0,1,1.7,4.4Z"/><path class="cls-6" d="M317.2,192s35.3-3,21,55c0,0-15,47.3,33.5,43.8,0,0-40.9,26.1-52-12.5-.6-2,15.2-71-2.5-86.3Z"/><path class="cls-7" d="M245,192.3c-.2-.5-5.6-3.9-7.1,2"/><path class="cls-7" d="M300.4,212.8c0-1.1,0-7.6-8.1-6.6"/><path class="cls-8" d="M55.2,119.8v2.3H41.4V103.3H54.9v2.4H44.1v5.8h9.6v2.3H44.1v6.1H55.2Z"/><path class="cls-8" d="M57.2,120.7l1.1-2a9.76,9.76,0,0,0,5,1.5c2.4,0,3.4-.7,3.4-2,0-3.2-9-.4-9-6.2,0-2.6,2.3-4.3,6.1-4.3A10.3,10.3,0,0,1,69,109l-1.1,2a7.55,7.55,0,0,0-4.2-1.1c-2.3,0-3.4.8-3.4,2,0,3.4,9.2.7,9.2,6.2,0,2.6-2.4,4.3-6.2,4.3A10.6,10.6,0,0,1,57.2,120.7Z"/><path class="cls-8" d="M80.8,121.4a4,4,0,0,1-3.1.9c-2.8,0-4.6-1.6-4.6-4.4V110H70.7v-2.2h2.4v-3.1h2.7v3.1H80V110H75.8v7.8a2.23,2.23,0,0,0,2,2.4h.3a3.46,3.46,0,0,0,2-.7Z"/><path class="cls-8" d="M95.2,113.5v8.7H92.8v-1.9a4.78,4.78,0,0,1-4.7,2c-3.2,0-5.4-1.7-5.4-4.2,0-2.3,1.5-4.2,5.8-4.2h4.2v-.5c0-2.2-1.2-3.5-3.9-3.5a7.89,7.89,0,0,0-4.6,1.5l-.9-1.9a10.36,10.36,0,0,1,5.9-1.9C93,107.7,95.2,109.6,95.2,113.5Zm-2.6,4.3v-2h-4c-2.6,0-3.2,1.1-3.2,2.2,0,1.5,1.2,2.3,3.2,2.3A4,4,0,0,0,92.6,117.8Z"/><path class="cls-8" d="M123.8,113.9v8.2h-2.6v-7.9c0-2.8-1.3-4.2-3.8-4.2s-4.3,1.6-4.3,4.7v7.4h-2.6v-7.9c0-2.8-1.3-4.2-3.8-4.2s-4.3,1.6-4.3,4.7v7.4H100V107.8h2.6V110a5.73,5.73,0,0,1,5-2.3,5.42,5.42,0,0,1,5,2.7,6.73,6.73,0,0,1,5.5-2.7c3.4,0,5.7,2,5.7,6.2Z"/><path class="cls-8" d="M127.5,114.9a7.45,7.45,0,1,1,7.5,7.4h-.1a7.09,7.09,0,0,1-7.4-6.9Zm12.2,0a4.86,4.86,0,1,0-4.9,5.1,4.69,4.69,0,0,0,4.8-4.6C139.7,115.3,139.7,115.2,139.7,114.9Z"/><path class="cls-8" d="M144.1,120.7l1.1-2a9.76,9.76,0,0,0,5,1.5c2.4,0,3.4-.7,3.4-2,0-3.2-9-.4-9-6.2,0-2.6,2.3-4.3,6.1-4.3a10.3,10.3,0,0,1,5.2,1.3l-1.1,2a7.55,7.55,0,0,0-4.2-1.1c-2.3,0-3.4.8-3.4,2,0,3.4,9.2.7,9.2,6.2,0,2.6-2.4,4.3-6.2,4.3A10.82,10.82,0,0,1,144.1,120.7Z"/><path class="cls-8" d="M181.7,114.9a7.1,7.1,0,0,1-6.6,7.4h-.7a6.41,6.41,0,0,1-5-2.3v7.4h-2.6V107.7h2.6V110a5.75,5.75,0,0,1,5.1-2.4,7,7,0,0,1,7.3,6.6A2.25,2.25,0,0,0,181.7,114.9Zm-2.7,0a4.86,4.86,0,1,0-4.9,5.1,4.7,4.7,0,0,0,4.8-4.6C179,115.3,179,115.2,179,114.9Z"/><path class="cls-8" d="M193,107.7v2.6h-.5c-2.8,0-4.6,1.7-4.6,4.8v7.1h-2.6V107.8h2.6v2.4C188.7,108.6,190.4,107.7,193,107.7Z"/><path class="cls-8" d="M209,115.9H197.3c.3,2.6,2.3,4.2,5.2,4.2a5.51,5.51,0,0,0,4.2-1.7l1.5,1.6a7.19,7.19,0,0,1-5.7,2.3c-4.6,0-7.7-3.1-7.7-7.4a7,7,0,0,1,6.7-7.3h.5c4.2,0,7.1,3,7.1,7.4A2.77,2.77,0,0,0,209,115.9ZM197.3,114h9.2a4.64,4.64,0,0,0-9.2,0Z"/><path class="cls-8" d="M227.5,114.9a7,7,0,0,1-6.6,7.4h-.7a6.41,6.41,0,0,1-5-2.3v7.4h-2.6V107.7h2.6V110a5.75,5.75,0,0,1,5.1-2.4,7,7,0,0,1,7.3,6.7A1.49,1.49,0,0,0,227.5,114.9Zm-2.6,0A4.86,4.86,0,1,0,220,120a4.7,4.7,0,0,0,4.8-4.6C224.9,115.3,224.9,115.2,224.9,114.9Z"/><path class="cls-8" d="M242.4,113.5v8.7H240v-1.9c-.8,1.3-2.4,2-4.7,2-3.2,0-5.2-1.7-5.2-4.2,0-2.3,1.5-4.2,5.8-4.2h4.2v-.5c0-2.2-1.2-3.5-3.9-3.5a7.89,7.89,0,0,0-4.6,1.5l-1.1-1.9a10.36,10.36,0,0,1,5.9-1.9C240.1,107.7,242.4,109.6,242.4,113.5Zm-2.7,4.3v-2h-4c-2.6,0-3.2,1.1-3.2,2.2,0,1.5,1.2,2.3,3.2,2.3A4,4,0,0,0,239.7,117.8Z"/><path class="cls-8" d="M254.9,107.7v2.6h-.5c-2.8,0-4.6,1.7-4.6,4.8v7.1h-2.6V107.8h2.6v2.4C250.6,108.6,252.4,107.7,254.9,107.7Z"/><path class="cls-8" d="M269.4,113.5v8.7H267v-1.9c-.8,1.3-2.4,2-4.7,2-3.2,0-5.2-1.7-5.2-4.2,0-2.3,1.5-4.2,5.8-4.2h4.2v-.5c0-2.2-1.2-3.5-3.9-3.5a7.89,7.89,0,0,0-4.6,1.5l-1.1-1.9a10.36,10.36,0,0,1,5.9-1.9c3.8.1,6,2,6,5.9Zm-2.5,4.3v-2h-4c-2.6,0-3.2,1.1-3.2,2.2,0,1.5,1.2,2.3,3.2,2.3A4.16,4.16,0,0,0,266.9,117.8Z"/><path class="cls-8" d="M287.9,113.9v8.2h-2.6v-7.9c0-2.8-1.5-4.2-3.9-4.2-2.8,0-4.6,1.6-4.6,4.7v7.4h-2.6V107.8h2.6V110a5.91,5.91,0,0,1,5.1-2.3c3.6,0,6,2,6,6.2Z"/><path class="cls-8" d="M306.3,102v20.1h-2.4v-2.2a5.75,5.75,0,0,1-5.1,2.4,7.3,7.3,0,0,1,0-14.6,6.11,6.11,0,0,1,5,2.3v-7.9Zm-2.5,12.9a4.86,4.86,0,1,0-4.9,5.1,4.76,4.76,0,0,0,4.8-4.6c.1-.1.1-.2.1-.5Z"/><path class="cls-8" d="M310,114.9a7.45,7.45,0,1,1,7.5,7.4h-.1a7.09,7.09,0,0,1-7.4-6.9Zm12.2,0a4.86,4.86,0,1,0-4.9,5.1,4.69,4.69,0,0,0,4.8-4.6c.1-.1.1-.2.1-.5Z"/><path class="cls-8" d="M54,148.3H42.3a4.91,4.91,0,0,0,5.2,4.2,5.51,5.51,0,0,0,4.2-1.7l1.5,1.7a7.19,7.19,0,0,1-5.7,2.3c-4.6,0-7.7-3.1-7.7-7.4a7,7,0,0,1,6.7-7.3h.4c4.2,0,7.1,3,7.1,7.4A2.08,2.08,0,0,1,54,148.3Zm-11.6-1.7h9.2a4.51,4.51,0,0,0-4.6-4.2A4.38,4.38,0,0,0,42.4,146.6Z"/><path class="cls-8" d="M55.9,153.2l1.1-2a9.76,9.76,0,0,0,5,1.5c2.4,0,3.4-.7,3.4-1.9,0-3.2-9-.4-9-6.2,0-2.6,2.3-4.3,6.1-4.3a10.3,10.3,0,0,1,5.2,1.3l-1.1,2a7.55,7.55,0,0,0-4.2-1.1c-2.3,0-3.4.8-3.4,2,0,3.4,9.2.7,9.2,6.2,0,2.6-2.4,4.3-6.2,4.3A11,11,0,0,1,55.9,153.2Z"/><path class="cls-8" d="M79.3,153.8a4,4,0,0,1-3.1.9c-2.8,0-4.6-1.6-4.6-4.4v-7.9H69.2v-2.2h2.4v-3.1h2.6v3.1h4.2v2.2H74.2v7.8a2.15,2.15,0,0,0,1.9,2.4h.3a3.46,3.46,0,0,0,2-.7Z"/><path class="cls-8" d="M93.8,146v8.7H91.4v-1.9a5,5,0,0,1-4.7,2c-3.2,0-5.2-1.7-5.2-4.2,0-2.3,1.5-4.2,5.8-4.2h4V146c0-2.2-1.2-3.5-3.9-3.5a7.89,7.89,0,0,0-4.6,1.5l-1.1-2a10.36,10.36,0,0,1,5.9-1.9c4.1.1,6.2,2,6.2,5.9Zm-2.6,4.3v-2h-4c-2.6,0-3.2.9-3.2,2.2,0,1.5,1.2,2.3,3.2,2.3A4,4,0,0,0,91.2,150.3Z"/><path class="cls-8" d="M105.5,135.9a1.75,1.75,0,0,1,1.7-1.7,1.67,1.67,0,0,1,1.7,1.6,1.75,1.75,0,0,1-1.7,1.7h-.1C106.3,137.7,105.5,136.9,105.5,135.9Zm.4,4.3h2.6v14.4h-2.6Z"/><path class="cls-8" d="M137.3,146.4v8.2h-2.6v-7.9c0-2.8-1.3-4.2-3.8-4.2s-4.3,1.6-4.3,4.7v7.4H124v-7.9c0-2.8-1.3-4.2-3.8-4.2s-4.3,1.6-4.3,4.7v7.4h-2.6V140.2h2.6v2.2a6.11,6.11,0,0,1,5-2.3,5.42,5.42,0,0,1,5,2.7,7,7,0,0,1,5.5-2.7c3.6.1,5.9,2,5.9,6.3Z"/><path class="cls-8" d="M153.6,146v8.7h-2.4v-1.9a5.17,5.17,0,0,1-4.7,2c-3.2,0-5.4-1.7-5.4-4.2,0-2.3,1.5-4.2,5.8-4.2h4.2V146c0-2.2-1.2-3.5-3.9-3.5a7.89,7.89,0,0,0-4.6,1.5l-1.1-2a10.75,10.75,0,0,1,6.1-1.9c3.7.1,6,2,6,5.9Zm-2.7,4.3v-2h-4c-2.6,0-3.2.9-3.2,2.2,0,1.5,1.2,2.3,3.2,2.3A4,4,0,0,0,150.9,150.3Z"/><path class="cls-8" d="M172.1,140.2v12.4c0,5.1-2.6,7.4-7.4,7.4a11.12,11.12,0,0,1-6.9-2.2l1.2-2a9.16,9.16,0,0,0,5.5,1.9c3.4,0,5-1.6,5-4.8v-1.1a6.34,6.34,0,0,1-5.1,2.2c-4.2,0-7.3-2.8-7.3-7s3.1-7,7.3-7a6.17,6.17,0,0,1,5.2,2.4v-2.2Zm-2.5,6.9a4.93,4.93,0,0,0-4.7-5.2,5,5,0,0,0-.5,9.9h.3a4.75,4.75,0,0,0,5-4.2A1.09,1.09,0,0,1,169.6,147.1Z"/><path class="cls-8" d="M190,148.3H178.3a4.85,4.85,0,0,0,5.2,4.2,5.51,5.51,0,0,0,4.2-1.7l1.5,1.7a7.19,7.19,0,0,1-5.7,2.3c-4.6,0-7.7-3.1-7.7-7.4a7,7,0,0,1,6.7-7.3h.4c4.2,0,7.1,3,7.1,7.4Zm-11.7-1.7h9.3a4.46,4.46,0,0,0-5.1-4A4.41,4.41,0,0,0,178.3,146.6Z"/><path class="cls-8" d="M207.3,146.4v8.2h-2.6v-7.9q0-4.2-3.9-4.2c-2.8,0-4.6,1.6-4.6,4.7v7.4h-2.6V140.2h2.6v2.2a6,6,0,0,1,5.1-2.3C204.8,140.2,207.3,142.1,207.3,146.4Z"/><path class="cls-4" d="M71.81,73.46c0,6.35-4.9,10-14.24,10H39.7V46.25H56.39c8.53,0,13.33,3.63,13.33,9.61a9,9,0,0,1-5,8.35A9,9,0,0,1,71.81,73.46ZM45.05,50.51v12H55.94c5.53,0,8.52-2.09,8.52-5.9s-3.08-6-8.52-6ZM66.46,73c0-4.27-3.18-6.26-9.16-6.26H45.05V79.18H57.3C63.28,79.18,66.46,77.36,66.46,73Z"/><path class="cls-4" d="M105.64,55.32V83.53h-4.89V79.27a11.13,11.13,0,0,1-9.62,4.53c-7.35,0-12.06-3.9-12.06-12.33V55.32h5.17v15.6c0,5.53,2.81,8.35,7.53,8.35,5.35,0,8.7-3.27,8.7-9.44V55.32Z"/><path class="cls-4" d="M141.66,55.32V83.53h-4.9V79.27a11.07,11.07,0,0,1-9.53,4.53c-7.34,0-12.06-3.9-12.06-12.33V55.32h5.17v15.6c0,5.53,2.81,8.35,7.53,8.35,5.35,0,8.71-3.27,8.71-9.44V55.32Z"/><path class="cls-4" d="M177.67,55.32V83.53H173V79.27a11.13,11.13,0,0,1-9.62,4.53c-7.34,0-12.06-3.9-12.06-12.33V55.32h5.17v15.6c0,5.53,2.81,8.35,7.53,8.35,5.35,0,8.8-3.27,8.8-9.44V55.32Z"/><path class="cls-4" d="M186.28,80.45A3.44,3.44,0,0,1,189.73,77h.09A3.41,3.41,0,0,1,193,80.54a3.36,3.36,0,0,1-6.72-.09Zm.37-34.2h6l-1,25.49h-4Z"/><path class="cls-9" d="M275.1,294c-8.1-6.8-21.8-18.3-17-26.7,9.6-12.9,38.8,14.2,43.3,18.6"/><ellipse class="cls-10" cx="250.89" cy="251.21" rx="3.9" ry="3.7" transform="translate(-44.74 447.82) rotate(-78.66)"/><ellipse class="cls-11" cx="279.95" cy="230.39" rx="8.1" ry="7" transform="translate(-53.28 373.25) rotate(-62.66)"/><ellipse class="cls-11" cx="232.43" cy="218.13" rx="8.1" ry="7" transform="translate(-72.69 310.35) rotate(-60)"/><path class="cls-12" d="M249.2,210s10.7-2.8,14.7,4.8"/><path class="cls-12" d="M212.6,199.3c5.9-1.4,18-2.2,33.9,7.1a6.67,6.67,0,0,1,3,7.8c-1.7,5.1-4,12.1-11.7,18.1a30.35,30.35,0,0,1-4.7,2.5c-3.7.9-13.3,2.1-22.8-6a9.56,9.56,0,0,1-3.1-5.4,49,49,0,0,1,.5-19.3,6.49,6.49,0,0,1,4.9-4.8Z"/><path class="cls-12" d="M268.1,211.3c5.9-1.4,18-2.2,33.9,7.1a6.67,6.67,0,0,1,3,7.8c-1.7,5.1-4.4,12.7-12.1,18.8a30.11,30.11,0,0,1-4.4,2.2c-3.7.9-13.2,1.8-22.7-6.2a9.56,9.56,0,0,1-3.1-5.4,49,49,0,0,1,.5-19.3,6.44,6.44,0,0,1,4.9-5Z"/></svg>
